<svg width="69" height="69" viewBox="0 0 69 69" fill="none" xmlns="http://www.w3.org/2000/svg">
    <path d="M28 55H14V69H28V55Z" fill="black"/>
    <path d="M28 55H41V69H28V55Z" fill="black"/>
    <path d="M41 55H55V69H41V55Z" fill="black"/>
    <path d="M14 41H28V55H14V41Z" fill="black"/>
    <path d="M55 41H69V55H55V41Z" fill="black"/>
    <path d="M55 41H69V55H55V41Z" fill="black"/>
    <path d="M55 41H69V55H55V41Z" fill="black"/>
    <path d="M55 41H69V55H55V41Z" fill="black"/>
    <path d="M55.3333 41H69V55H55.3333V41Z" fill="black"/>
    <path d="M28 41H41.6667V55H28V41Z" fill="black"/>
    <path d="M55.3333 41H69V55H55.3333V41Z" fill="black"/>
    <path d="M28 41H41.6667V55H28V41Z" fill="black"/>
    <path d="M55.3333 41H69V69H55.3333V41Z" fill="black"/>
    <path d="M28 41H41.6667V69H28V41Z" fill="black"/>
    <path d="M41 0H55V14H41V0Z" fill="black"/>
    <path d="M41 0H55V14H41V0Z" fill="black"/>
    <path d="M14 0H28V14H14V0Z" fill="black"/>
    <path d="M14 0H28V14H14V0Z" fill="black"/>
    <path d="M0 14H14V28H0V14Z" fill="black"/>
    <path d="M14 0H28V14H14V0Z" fill="black"/>
    <path d="M14 0H28V14H14V0Z" fill="black"/>
    <path d="M55 14H69V28H55V14Z" fill="black"/>
    <path d="M55 14H69V28H55V14Z" fill="black"/>
    <path d="M28 14H41V28H28V14Z" fill="black"/>
    <path d="M55 0H69V14H55V0Z" fill="black"/>
    <path d="M28 0H41V14H28V0Z" fill="black"/>
</svg>
