<svg width="260" height="260" viewBox="0 0 260 260" fill="none" xmlns="http://www.w3.org/2000/svg">
<path d="M104 208H52V260H104V208Z" fill="black"/>
<path d="M104 208H156V260H104V208Z" fill="black"/>
<path d="M156 208H208V260H156V208Z" fill="black"/>
<path d="M52 156H104V208H52V156Z" fill="black"/>
<path d="M208 156H260V208H208V156Z" fill="black"/>
<path d="M208 156H260V208H208V156Z" fill="black"/>
<path d="M208 156H260V208H208V156Z" fill="black"/>
<path d="M208 156H260V208H208V156Z" fill="black"/>
<path d="M208 156H260V208H208V156Z" fill="black"/>
<path d="M104 156H156V208H104V156Z" fill="black"/>
<path d="M208 156H260V208H208V156Z" fill="black"/>
<path d="M104 156H156V208H104V156Z" fill="black"/>
<path d="M208 156H260V260H208V156Z" fill="black"/>
<path d="M104 156H156V260H104V156Z" fill="black"/>
<path d="M156 0H208V52H156V0Z" fill="black"/>
<path d="M156 0H208V52H156V0Z" fill="black"/>
<path d="M52 0H104V52H52V0Z" fill="black"/>
<path d="M52 0H104V52H52V0Z" fill="black"/>
<path d="M0 52H52V104H0V52Z" fill="black"/>
<path d="M52 0H104V52H52V0Z" fill="black"/>
<path d="M208 52H260V104H208V52Z" fill="black"/>
<path d="M208 52H260V104H208V52Z" fill="black"/>
<path d="M104 52H156V104H104V52Z" fill="black"/>
<path d="M208 0H260V52H208V0Z" fill="black"/>
<path d="M104 0H156V52H104V0Z" fill="black"/>
<path d="M104 208H52V260H104V208Z" fill="black"/>
<path d="M104 208H156V260H104V208Z" fill="black"/>
<path d="M156 208H208V260H156V208Z" fill="black"/>
<path d="M52 156H104V208H52V156Z" fill="black"/>
<path d="M208 156H260V208H208V156Z" fill="black"/>
<path d="M208 156H260V208H208V156Z" fill="black"/>
<path d="M208 156H260V208H208V156Z" fill="black"/>
<path d="M208 156H260V208H208V156Z" fill="black"/>
<path d="M208 156H260V208H208V156Z" fill="black"/>
<path d="M104 156H156V208H104V156Z" fill="black"/>
<path d="M208 156H260V208H208V156Z" fill="black"/>
<path d="M104 156H156V208H104V156Z" fill="black"/>
<path d="M208 156H260V260H208V156Z" fill="black"/>
<path d="M104 156H156V260H104V156Z" fill="black"/>
<path d="M156 0H208V52H156V0Z" fill="black"/>
<path d="M156 0H208V52H156V0Z" fill="black"/>
<path d="M52 0H104V52H52V0Z" fill="black"/>
<path d="M52 0H104V52H52V0Z" fill="black"/>
<path d="M0 52H52V104H0V52Z" fill="black"/>
<path d="M52 0H104V52H52V0Z" fill="black"/>
<path d="M208 52H260V104H208V52Z" fill="black"/>
<path d="M208 52H260V104H208V52Z" fill="black"/>
<path d="M104 52H156V104H104V52Z" fill="black"/>
<path d="M208 0H260V52H208V0Z" fill="black"/>
<path d="M104 0H156V52H104V0Z" fill="black"/>
<path d="M104 208H52V260H104V208Z" fill="black"/>
<path d="M104 208H156V260H104V208Z" fill="black"/>
<path d="M156 208H208V260H156V208Z" fill="black"/>
<path d="M52 156H104V208H52V156Z" fill="black"/>
<path d="M208 156H260V208H208V156Z" fill="black"/>
<path d="M208 156H260V208H208V156Z" fill="black"/>
<path d="M208 156H260V208H208V156Z" fill="black"/>
<path d="M208 156H260V208H208V156Z" fill="black"/>
<path d="M208 156H260V208H208V156Z" fill="black"/>
<path d="M104 156H156V208H104V156Z" fill="black"/>
<path d="M208 156H260V208H208V156Z" fill="black"/>
<path d="M104 156H156V208H104V156Z" fill="black"/>
<path d="M208 156H260V260H208V156Z" fill="black"/>
<path d="M104 156H156V260H104V156Z" fill="black"/>
<path d="M156 0H208V52H156V0Z" fill="black"/>
<path d="M156 0H208V52H156V0Z" fill="black"/>
<path d="M52 0H104V52H52V0Z" fill="black"/>
<path d="M52 0H104V52H52V0Z" fill="black"/>
<path d="M0 52H52V104H0V52Z" fill="black"/>
<path d="M52 0H104V52H52V0Z" fill="black"/>
<path d="M208 52H260V104H208V52Z" fill="black"/>
<path d="M208 52H260V104H208V52Z" fill="black"/>
<path d="M104 52H156V104H104V52Z" fill="black"/>
<path d="M208 0H260V52H208V0Z" fill="black"/>
<path d="M104 0H156V52H104V0Z" fill="black"/>
</svg>
